<svg xmlns="http://www.w3.org/2000/svg" width="150" height="50" viewBox="0,0,150,50"><path fill="#333" d="M120.51 41.06L120.40 40.94L120.41 40.96Q116.28 29.75 111.14 24.76L111.08 24.70L111.19 24.81Q112.62 25.40 115.59 26.05L115.54 26.00L115.63 26.09Q119.01 29.85 121.56 36.51L121.58 36.54L121.70 36.65Q124.27 29.22 126.90 26.17L126.89 26.16L126.95 26.22Q128.83 26.00 131.26 25.32L131.40 25.46L131.40 25.45Q128.24 28.19 126.07 32.76L125.94 32.63L125.96 32.66Q125.67 33.39 122.28 41.01L122.18 40.91L122.33 41.05Q121.74 41.15 120.52 41.07ZM125.17 43.51L125.03 43.37L125.18 43.53Q128.47 31.16 133.04 26.48L133.06 26.50L131.57 27.00L131.47 26.90Q130.68 27.13 129.85 27.25L129.94 27.35L129.86 27.26Q130.28 26.81 131.10 25.94L131.12 25.95L131.11 25.94Q131.95 25.09 132.41 24.68L132.42 24.68L132.52 24.79Q130.16 25.28 126.73 25.77L126.72 25.76L126.81 25.85Q124.18 29.13 122.13 34.72L122.11 34.70L122.06 34.66Q120.43 30.48 118.61 28.00L118.62 28.01L117.99 27.91L118.06 27.98Q117.74 27.93 117.51 27.93L117.41 27.83L117.53 27.95Q117.31 27.61 115.59 25.56L115.64 25.61L115.55 25.51Q112.28 25.10 110.04 23.96L109.97 23.90L110.02 23.95Q116.07 29.57 120.07 41.30L120.05 41.28L121.22 41.46L121.19 41.44Q121.56 42.11 122.39 43.40L122.30 43.31L123.72 43.35L123.75 43.39Q124.50 43.41 125.15 43.49Z"/><path fill="#111" d="M24.90 39.83L24.92 39.86L23.06 39.93L23.05 39.92Q21.95 39.78 21.00 39.89L21.15 40.04L21.15 40.04Q21.67 33.79 21.67 29.79L21.59 29.71L21.71 29.83Q17.60 23.02 9.95 14.34L10.08 14.47L9.97 14.35Q11.81 15.40 15.16 16.20L15.11 16.15L15.08 16.12Q20.20 21.77 23.21 26.99L23.22 27.00L23.24 27.02Q26.23 21.45 30.61 16.42L30.53 16.34L30.54 16.35Q32.93 15.92 35.44 15.12L35.57 15.26L35.62 15.30Q29.51 21.33 24.64 29.75L24.62 29.73L24.54 29.66Q24.55 36.70 24.85 39.78ZM34.07 17.33L36.67 14.37L36.68 14.38Q33.71 15.68 30.59 16.14L30.42 15.96L30.45 15.99Q26.23 20.71 23.41 25.82L23.43 25.84L23.53 25.94Q21.38 22.27 18.18 18.38L18.17 18.37L18.18 18.38Q17.86 18.32 17.36 18.25L17.45 18.34L17.47 18.36Q16.63 17.40 15.11 15.72L15.07 15.69L15.15 15.77Q11.83 15.08 8.86 13.52L8.76 13.41L8.78 13.44Q16.58 22.00 21.34 29.92L21.33 29.90L21.39 29.96Q21.22 36.23 20.61 40.38L20.62 40.38L20.52 40.29Q21.39 40.40 22.84 40.28L22.82 40.27L22.70 41.17L22.69 41.17Q22.80 41.73 22.72 42.26L22.77 42.31L22.65 42.19Q26.28 42.28 28.03 42.47L27.90 42.34L28.01 42.44Q26.78 37.79 26.67 31.81L26.59 31.74L26.70 31.85Q30.96 23.28 37.51 15.93L37.54 15.96L33.99 17.24Z"/><path fill="#333" d="M74.11 39.93L73.93 39.76L74.00 39.82Q72.03 39.76 70.01 39.95L70.03 39.97L70.04 39.98Q70.63 34.66 70.63 29.83L70.77 29.98L70.78 29.99Q70.82 25.11 70.17 19.89L70.13 19.86L70.08 19.81Q65.45 19.36 62.25 17.69L62.36 17.80L61.59 16.00L61.63 16.03Q61.42 15.53 60.81 14.31L60.68 14.18L60.78 14.27Q65.78 16.88 71.80 17.07L71.80 17.07L71.91 17.18Q77.80 17.36 83.24 15.30L83.20 15.26L83.25 15.31Q82.54 16.74 81.90 18.56L81.73 18.40L81.74 18.41Q78.23 19.81 73.96 20.00L73.91 19.94L74.02 20.05Q73.67 24.92 73.67 29.87L73.75 29.95L73.77 29.96Q73.73 34.87 74.03 39.86ZM83.83 14.52L83.89 14.58L83.92 14.61Q78.00 16.80 71.79 16.61L71.87 16.68L71.76 16.57Q65.09 16.38 59.99 13.41L60.02 13.43L60.01 13.43Q60.81 14.76 62.11 18.04L62.02 17.95L62.13 18.06Q62.75 18.33 64.00 18.90L64.05 18.95L63.97 18.87Q64.27 19.63 64.62 21.16L64.65 21.19L64.64 21.18Q66.93 22.02 69.98 22.25L69.94 22.21L70.04 22.32Q70.36 25.94 70.36 29.71L70.30 29.66L70.34 29.70Q70.39 35.12 69.60 40.49L69.55 40.44L69.52 40.41Q71.23 40.33 71.77 40.33L71.77 40.34L71.81 40.38Q71.83 40.71 71.78 41.37L71.62 41.22L71.62 41.21Q71.54 41.86 71.54 42.20L71.66 42.32L71.68 42.35Q72.77 42.18 74.30 42.26L74.41 42.37L74.27 42.23Q75.19 42.28 77.02 42.43L77.04 42.45L76.97 42.38Q75.77 37.48 75.65 32.31L75.71 32.36L75.69 32.34Q75.59 27.06 76.12 22.15L76.13 22.16L76.15 22.18Q80.17 21.71 83.33 20.49L83.21 20.37L83.17 20.33Q83.88 17.95 84.90 15.90L84.98 15.97L84.85 15.85Q83.56 16.57 82.76 16.87L82.81 16.93L82.72 16.84Q83.20 15.60 83.77 14.46Z"/><path fill="#222" d="M38.25 14.24L38.32 14.31L38.33 14.32Q42.04 16.77 46.80 17.00L46.97 17.18L46.95 17.16Q51.52 17.27 55.78 15.52L55.83 15.57L55.80 15.53Q55.55 16.09 54.79 18.87L54.70 18.78L54.80 18.87Q52.01 19.85 49.04 20.00L49.04 20.00L49.04 20.01Q46.02 20.11 43.13 19.39L43.09 19.35L43.17 19.42Q43.79 22.97 43.98 26.63L44.08 26.73L44.01 26.67Q46.06 26.92 47.65 26.88L47.66 26.88L47.70 26.93Q48.97 26.98 51.37 26.86L51.30 26.80L51.37 26.87Q51.26 27.44 51.26 28.12L51.33 28.19L51.28 29.48L51.16 29.36Q48.81 29.41 44.02 29.49L44.14 29.61L44.15 29.62Q44.05 33.64 43.48 37.63L43.53 37.68L43.49 37.64Q46.10 36.98 48.84 37.09L48.89 37.13L48.79 37.04Q51.47 37.09 54.06 37.93L54.06 37.93L54.07 37.94Q54.29 38.88 54.55 39.64L54.44 39.53L55.01 41.16L54.88 41.04Q51.82 39.88 48.39 39.88L48.40 39.89L48.25 39.73Q43.42 39.78 39.16 42.03L39.11 41.98L39.16 42.02Q41.57 35.30 41.31 28.18L41.15 28.03L41.30 28.17Q41.03 21.02 38.36 14.36ZM38.74 42.82L38.74 42.82L38.78 42.86Q39.91 42.01 40.67 41.67L40.72 41.72L40.71 41.71Q40.58 42.54 40.01 44.06L39.99 44.04L40.03 44.08Q44.58 42.11 49.64 42.38L49.61 42.35L49.55 42.30Q54.78 42.64 58.77 45.35L58.64 45.22L58.71 45.29Q57.57 42.77 56.88 40.83L56.86 40.80L56.93 40.88Q55.81 40.14 54.82 39.79L54.90 39.88L54.81 39.78Q54.56 38.54 54.40 37.74L54.41 37.75L54.43 37.77Q51.18 36.61 48.02 36.61L48.12 36.71L48.16 36.75Q46.97 36.70 45.83 36.81L45.72 36.71L45.74 36.73Q45.94 35.56 45.98 34.34L45.95 34.31L46.05 31.82L46.10 31.88Q47.92 31.79 49.71 31.83L49.72 31.84L49.72 31.84Q51.50 31.83 53.29 31.98L53.32 32.02L53.37 32.06Q53.18 30.99 53.18 30.04L53.24 30.11L53.11 28.07L52.45 28.29L52.33 28.16Q51.94 28.28 51.49 28.28L51.60 28.39L51.58 28.37Q51.44 27.54 51.59 26.25L51.73 26.38L51.64 26.30Q50.04 26.52 48.86 26.56L48.85 26.55L48.95 26.65Q47.92 26.57 46.09 26.50L46.09 26.50L46.18 26.58Q45.97 25.05 45.78 22.23L45.87 22.32L45.79 22.24Q46.79 22.32 47.78 22.32L47.85 22.39L47.85 22.40Q52.52 22.34 56.21 20.44L56.26 20.49L56.19 20.41Q56.83 18.13 57.71 15.92L57.64 15.85L57.68 15.89Q56.31 16.69 55.47 17.03L55.52 17.08L55.61 17.17Q55.90 16.40 56.36 14.84L56.32 14.80L56.37 14.85Q51.77 17.03 46.90 16.72L46.71 16.53L46.71 16.53Q41.42 16.23 37.57 13.37L37.74 13.54L37.64 13.44Q40.60 20.47 40.90 28.09L40.82 28.00L40.80 27.98Q41.25 36.05 38.74 42.83Z"/><path fill="#333" d="M95.99 19.70L95.99 19.70L95.97 19.68Q93.96 19.76 93.00 19.91L92.98 19.89L93.09 19.99Q91.42 20.19 90.21 20.73L90.23 20.76L90.24 20.76Q86.76 22.23 86.65 26.91L86.59 26.86L86.50 26.77Q86.45 29.46 87.10 32.39L87.07 32.37L87.16 32.45Q87.91 36.36 91.53 37.54L91.55 37.57L91.62 37.64Q93.61 38.29 95.06 38.14L95.04 38.12L95.34 37.96L95.41 38.04Q95.60 38.03 95.79 38.07L95.76 38.05L95.72 38.00Q96.01 38.15 96.17 38.11L96.04 37.99L96.06 38.00Q98.74 37.79 100.11 37.21L100.16 37.26L96.42 33.56L96.40 33.54Q96.82 33.31 97.42 32.70L97.54 32.82L98.27 31.72L98.30 31.76Q100.19 33.87 102.17 35.93L102.10 35.86L102.23 35.99Q104.43 34.03 104.69 28.67L104.82 28.80L104.79 28.77Q104.82 27.81 104.82 26.89L104.78 26.85L104.82 26.89Q104.73 21.13 99.67 20.03L99.69 20.05L99.78 20.14Q98.38 19.73 95.87 19.57ZM108.74 41.73L108.70 41.69L108.63 41.62Q108.08 42.10 106.90 42.98L106.94 43.02L102.48 39.29L102.54 39.34Q100.06 40.56 95.80 40.59L95.79 40.59L95.87 40.67Q89.32 40.78 86.50 38.53L86.44 38.47L86.38 38.41Q84.72 36.75 84.27 33.78L84.12 33.64L84.23 33.74Q83.97 31.89 83.59 28.31L83.68 28.41L83.57 28.29Q83.71 27.71 83.59 25.95L83.53 25.89L83.57 25.94Q83.31 24.26 83.35 23.39L83.41 23.45L83.31 23.35Q83.46 20.34 85.22 18.78L85.20 18.76L85.35 18.91Q86.75 17.46 89.95 16.96L89.91 16.93L90.08 17.10Q92.52 16.68 95.41 16.76L95.33 16.67L95.35 16.69Q102.91 16.87 106.03 19.23L105.99 19.19L105.95 19.15Q108.13 21.29 107.86 26.20L107.82 26.16L107.82 26.15Q107.71 29.89 107.52 31.22L107.50 31.21L107.49 31.20Q106.77 35.61 104.45 37.94L104.56 38.05L104.52 38.01Q106.03 39.30 108.78 41.77ZM103.90 17.48L103.84 17.42L103.96 17.54Q101.90 16.77 95.39 16.27L95.27 16.16L95.44 16.33Q93.97 16.26 91.19 16.38L91.24 16.43L91.22 16.42Q86.90 16.55 84.65 18.52L84.81 18.68L84.73 18.60Q83.09 20.08 83.09 23.24L82.98 23.13L83.04 23.19Q83.05 24.04 83.21 25.76L83.19 25.74L83.20 25.75Q83.29 27.40 83.29 28.28L83.28 28.26L83.38 28.36Q83.44 30.02 83.82 33.60L83.95 33.73L83.87 33.65Q84.19 36.49 85.79 38.54L85.81 38.56L85.77 38.52Q86.21 39.46 87.43 40.60L87.39 40.56L87.47 40.64Q90.16 42.61 95.34 42.88L95.34 42.87L95.27 42.80Q95.59 42.79 97.99 42.90L98.07 42.98L98.05 42.96Q102.92 43.19 105.20 42.12L105.10 42.02L105.23 42.15Q106.02 42.75 110.74 46.33L110.65 46.23L110.75 46.33Q111.44 45.88 112.73 44.89L112.64 44.80L112.66 44.81Q111.67 44.01 110.87 43.33L111.05 43.51L109.39 42.04L109.46 41.96L109.48 41.98Q108.86 41.48 107.64 40.45L107.62 40.42L107.69 40.49Q109.54 37.93 109.54 33.40L109.56 33.42L109.44 33.30Q109.45 32.89 109.48 32.05L109.51 32.07L109.59 32.15Q109.51 31.20 109.51 30.78L109.58 30.85L109.58 30.85Q109.68 25.43 108.96 23.07L108.84 22.95L108.91 23.03Q108.54 21.74 107.66 20.67L107.64 20.65L107.59 20.60Q106.76 18.44 103.83 17.41ZM97.86 22.03L97.82 21.98L97.91 22.07Q101.95 21.96 103.78 23.56L103.83 23.62L103.83 23.62Q104.30 24.73 104.42 26.07L104.38 26.03L104.54 26.19Q104.44 27.27 104.36 28.64L104.37 28.65L104.53 28.81Q104.19 33.75 102.24 35.47L102.14 35.36L102.08 35.30Q100.97 34.19 98.45 31.45L98.44 31.43L98.43 31.43Q97.61 32.13 96.05 33.69L96.06 33.70L95.99 33.63Q96.56 34.24 97.71 35.42L97.77 35.49L97.55 35.38L97.63 35.46Q98.16 35.95 99.19 37.02L99.22 37.05L99.18 37.01Q98.15 37.24 95.83 37.54L95.95 37.67L95.34 37.59L95.10 37.76L94.89 37.60L95.04 37.74Q91.46 37.63 89.48 35.99L89.51 36.02L89.45 35.96Q88.44 33.89 88.48 30.76L88.58 30.87L88.49 30.77Q88.62 22.04 97.80 21.96Z"/></svg>